# xmcd CD database file
#
# Track frame offsets:
#	150
#	28625
#	41112
#	55664
#	71112
#	86817
#	107806
#	119971
#	138752
#	148845
#	166293
#	179577
#	194647
#	207689
#	221367
#
# Disc length: 3186 seconds
#
# Revision: 0
# Processed by: cddbd v1.4PL0 Copyright (c) Steve Scherf et al.
# Submitted via: CDex 1.50
#
DISCID=f60c700f
DTITLE=Eddie Low -  - The Eddie Low Collection 2
DYEAR=1900
DGENRE=Country
TTITLE0=Who's Gonna Fill Their Shoes
TTITLE1=Look At Me Now
TTITLE2=I Can't Love You Over The Phone
TTITLE3=Even Though You're Leaving (Wedding Song)
TTITLE4=The Finest Rose
TTITLE5=I Am Me
TTITLE6=Fiona
TTITLE7=Goodbye House
TTITLE8=Untouchable Lady
TTITLE9=If The Pain Continues
TTITLE10=Old Cowboy Songs
TTITLE11=That Day Is Coming
TTITLE12=Sunday Daddy
TTITLE13=I Can Still Get By With Your Love
TTITLE14=Songs Of Home
EXTD=
EXTT0=
EXTT1=
EXTT2=
EXTT3=
EXTT4=
EXTT5=
EXTT6=
EXTT7=
EXTT8=
EXTT9=
EXTT10=
EXTT11=
EXTT12=
EXTT13=
EXTT14=
PLAYORDER=
